<mxfile host="app.diagrams.net" modified="2024-04-09T16:45:59.850Z" agent="Mozilla/5.0 (Windows NT 10.0; Win64; x64) AppleWebKit/537.36 (KHTML, like Gecko) Chrome/123.0.0.0 Safari/537.36" etag="KAqu1OfY-0uEFHPrw6w-" version="24.2.2" type="device">
  <diagram name="Page-1" id="lST_mQ2j5S3W9H2JrHrT">
    <mxGraphModel dx="2048" dy="678" grid="1" gridSize="10" guides="1" tooltips="1" connect="1" arrows="1" fold="1" page="1" pageScale="1" pageWidth="827" pageHeight="1169" math="0" shadow="0">
      <root>
        <mxCell id="0" />
        <mxCell id="1" parent="0" />
        <mxCell id="U930AkhM4AC63TKt-8wk-3" value="&lt;font style=&quot;font-size: 22px;&quot;&gt;Клиент&lt;/font&gt;" style="html=1;whiteSpace=wrap;fillColor=#d5e8d4;strokeColor=#82b366;" vertex="1" parent="1">
          <mxGeometry x="280" y="90" width="110" height="50" as="geometry" />
        </mxCell>
        <mxCell id="U930AkhM4AC63TKt-8wk-4" value="&lt;font style=&quot;font-size: 22px;&quot;&gt;Замовлення&lt;/font&gt;" style="html=1;whiteSpace=wrap;fillColor=#d5e8d4;strokeColor=#82b366;" vertex="1" parent="1">
          <mxGeometry x="420" y="280" width="140" height="50" as="geometry" />
        </mxCell>
        <mxCell id="U930AkhM4AC63TKt-8wk-52" style="edgeStyle=orthogonalEdgeStyle;rounded=0;orthogonalLoop=1;jettySize=auto;html=1;entryX=0.5;entryY=0;entryDx=0;entryDy=0;endArrow=none;endFill=0;" edge="1" parent="1" source="U930AkhM4AC63TKt-8wk-9" target="U930AkhM4AC63TKt-8wk-48">
          <mxGeometry relative="1" as="geometry" />
        </mxCell>
        <mxCell id="U930AkhM4AC63TKt-8wk-9" value="&lt;font style=&quot;font-size: 22px;&quot;&gt;Сорти кави&lt;/font&gt;" style="html=1;whiteSpace=wrap;fillColor=#d5e8d4;strokeColor=#82b366;" vertex="1" parent="1">
          <mxGeometry x="50" y="260" width="140" height="50" as="geometry" />
        </mxCell>
        <mxCell id="U930AkhM4AC63TKt-8wk-46" style="edgeStyle=orthogonalEdgeStyle;rounded=0;orthogonalLoop=1;jettySize=auto;html=1;entryX=0.5;entryY=0;entryDx=0;entryDy=0;endArrow=none;endFill=0;" edge="1" parent="1" source="U930AkhM4AC63TKt-8wk-11" target="U930AkhM4AC63TKt-8wk-42">
          <mxGeometry relative="1" as="geometry" />
        </mxCell>
        <mxCell id="U930AkhM4AC63TKt-8wk-11" value="&lt;span style=&quot;font-size: 22px;&quot;&gt;Постачальники&lt;/span&gt;" style="html=1;whiteSpace=wrap;fillColor=#d5e8d4;strokeColor=#82b366;" vertex="1" parent="1">
          <mxGeometry x="90" y="470" width="160" height="50" as="geometry" />
        </mxCell>
        <mxCell id="U930AkhM4AC63TKt-8wk-15" value="Gleb" style="shape=umlActor;verticalLabelPosition=bottom;verticalAlign=top;html=1;" vertex="1" parent="1">
          <mxGeometry x="750" width="30" height="60" as="geometry" />
        </mxCell>
        <mxCell id="U930AkhM4AC63TKt-8wk-16" value="Artem" style="shape=umlActor;verticalLabelPosition=bottom;verticalAlign=top;html=1;" vertex="1" parent="1">
          <mxGeometry x="630" width="30" height="60" as="geometry" />
        </mxCell>
        <mxCell id="U930AkhM4AC63TKt-8wk-21" style="edgeStyle=orthogonalEdgeStyle;rounded=0;orthogonalLoop=1;jettySize=auto;html=1;entryX=0.5;entryY=0.5;entryDx=0;entryDy=0;entryPerimeter=0;" edge="1" parent="1" source="U930AkhM4AC63TKt-8wk-15" target="U930AkhM4AC63TKt-8wk-16">
          <mxGeometry relative="1" as="geometry" />
        </mxCell>
        <mxCell id="U930AkhM4AC63TKt-8wk-24" value="Поставляе" style="endArrow=open;endSize=12;dashed=1;html=1;rounded=0;exitX=0.25;exitY=0;exitDx=0;exitDy=0;entryX=0.25;entryY=1;entryDx=0;entryDy=0;shadow=0;edgeStyle=orthogonalEdgeStyle;curved=1;" edge="1" parent="1" source="U930AkhM4AC63TKt-8wk-11" target="U930AkhM4AC63TKt-8wk-9">
          <mxGeometry width="160" relative="1" as="geometry">
            <mxPoint x="180" y="290" as="sourcePoint" />
            <mxPoint x="308" y="150" as="targetPoint" />
            <Array as="points">
              <mxPoint x="130" y="440" />
              <mxPoint x="10" y="440" />
              <mxPoint x="10" y="350" />
              <mxPoint x="85" y="350" />
            </Array>
          </mxGeometry>
        </mxCell>
        <mxCell id="U930AkhM4AC63TKt-8wk-26" value="&lt;font style=&quot;font-size: 16px;&quot;&gt;Робить&lt;/font&gt;&lt;div style=&quot;font-size: 16px;&quot;&gt;&lt;br&gt;&lt;/div&gt;" style="text;strokeColor=none;fillColor=none;align=left;verticalAlign=middle;spacingLeft=4;spacingRight=4;overflow=hidden;points=[[0,0.5],[1,0.5]];portConstraint=eastwest;rotatable=0;whiteSpace=wrap;html=1;" vertex="1" parent="1">
          <mxGeometry x="414" y="190" width="106" height="40" as="geometry" />
        </mxCell>
        <mxCell id="U930AkhM4AC63TKt-8wk-27" value="" style="endArrow=ERzeroToMany;dashed=1;html=1;rounded=0;startArrow=ERmandOne;startFill=0;exitX=0.75;exitY=1;exitDx=0;exitDy=0;entryX=0.25;entryY=0;entryDx=0;entryDy=0;endFill=0;" edge="1" parent="1" source="U930AkhM4AC63TKt-8wk-3" target="U930AkhM4AC63TKt-8wk-4">
          <mxGeometry width="50" height="50" relative="1" as="geometry">
            <mxPoint x="310" y="410" as="sourcePoint" />
            <mxPoint x="370" y="210" as="targetPoint" />
          </mxGeometry>
        </mxCell>
        <mxCell id="U930AkhM4AC63TKt-8wk-30" value="" style="endArrow=ERzeroToMany;dashed=1;html=1;rounded=0;startArrow=ERmandOne;startFill=0;exitX=0.25;exitY=1;exitDx=0;exitDy=0;entryX=0.75;entryY=0;entryDx=0;entryDy=0;endFill=0;" edge="1" parent="1" source="U930AkhM4AC63TKt-8wk-3" target="U930AkhM4AC63TKt-8wk-9">
          <mxGeometry width="50" height="50" relative="1" as="geometry">
            <mxPoint x="373" y="150" as="sourcePoint" />
            <mxPoint x="465" y="290" as="targetPoint" />
          </mxGeometry>
        </mxCell>
        <mxCell id="U930AkhM4AC63TKt-8wk-31" value="&lt;div style=&quot;font-size: 16px;&quot;&gt;Замовляе&lt;/div&gt;" style="text;strokeColor=none;fillColor=none;align=left;verticalAlign=middle;spacingLeft=4;spacingRight=4;overflow=hidden;points=[[0,0.5],[1,0.5]];portConstraint=eastwest;rotatable=0;whiteSpace=wrap;html=1;" vertex="1" parent="1">
          <mxGeometry x="174" y="180" width="106" height="40" as="geometry" />
        </mxCell>
        <mxCell id="U930AkhM4AC63TKt-8wk-32" value="Клиент" style="swimlane;fontStyle=0;childLayout=stackLayout;horizontal=1;startSize=30;horizontalStack=0;resizeParent=1;resizeParentMax=0;resizeLast=0;collapsible=1;marginBottom=0;whiteSpace=wrap;html=1;fillColor=#d5e8d4;strokeColor=#82b366;" vertex="1" parent="1">
          <mxGeometry x="30" y="30" width="100" height="90" as="geometry" />
        </mxCell>
        <mxCell id="U930AkhM4AC63TKt-8wk-33" value="Код клиента" style="text;strokeColor=#d79b00;fillColor=#ffe6cc;align=left;verticalAlign=middle;spacingLeft=4;spacingRight=4;overflow=hidden;points=[[0,0.5],[1,0.5]];portConstraint=eastwest;rotatable=0;whiteSpace=wrap;html=1;" vertex="1" parent="U930AkhM4AC63TKt-8wk-32">
          <mxGeometry y="30" width="100" height="30" as="geometry" />
        </mxCell>
        <mxCell id="U930AkhM4AC63TKt-8wk-34" value="Имя" style="text;strokeColor=#d79b00;fillColor=#ffe6cc;align=left;verticalAlign=middle;spacingLeft=4;spacingRight=4;overflow=hidden;points=[[0,0.5],[1,0.5]];portConstraint=eastwest;rotatable=0;whiteSpace=wrap;html=1;" vertex="1" parent="U930AkhM4AC63TKt-8wk-32">
          <mxGeometry y="60" width="100" height="30" as="geometry" />
        </mxCell>
        <mxCell id="U930AkhM4AC63TKt-8wk-36" value="" style="endArrow=none;html=1;rounded=0;exitX=1.028;exitY=0.14;exitDx=0;exitDy=0;exitPerimeter=0;entryX=0;entryY=0.5;entryDx=0;entryDy=0;" edge="1" parent="1" source="U930AkhM4AC63TKt-8wk-32" target="U930AkhM4AC63TKt-8wk-3">
          <mxGeometry width="50" height="50" relative="1" as="geometry">
            <mxPoint x="340" y="290" as="sourcePoint" />
            <mxPoint x="390" y="240" as="targetPoint" />
          </mxGeometry>
        </mxCell>
        <mxCell id="U930AkhM4AC63TKt-8wk-37" value="&lt;span style=&quot;font-size: 22px;&quot;&gt;Замовлення&lt;/span&gt;" style="swimlane;fontStyle=0;childLayout=stackLayout;horizontal=1;startSize=30;horizontalStack=0;resizeParent=1;resizeParentMax=0;resizeLast=0;collapsible=1;marginBottom=0;whiteSpace=wrap;html=1;fillColor=#d5e8d4;strokeColor=#82b366;" vertex="1" parent="1">
          <mxGeometry x="650" y="290" width="140" height="120" as="geometry" />
        </mxCell>
        <mxCell id="U930AkhM4AC63TKt-8wk-38" value="Номер замовлення" style="text;strokeColor=#d79b00;fillColor=#ffe6cc;align=left;verticalAlign=middle;spacingLeft=4;spacingRight=4;overflow=hidden;points=[[0,0.5],[1,0.5]];portConstraint=eastwest;rotatable=0;whiteSpace=wrap;html=1;" vertex="1" parent="U930AkhM4AC63TKt-8wk-37">
          <mxGeometry y="30" width="140" height="30" as="geometry" />
        </mxCell>
        <mxCell id="U930AkhM4AC63TKt-8wk-39" value="Цена" style="text;strokeColor=#d79b00;fillColor=#ffe6cc;align=left;verticalAlign=middle;spacingLeft=4;spacingRight=4;overflow=hidden;points=[[0,0.5],[1,0.5]];portConstraint=eastwest;rotatable=0;whiteSpace=wrap;html=1;" vertex="1" parent="U930AkhM4AC63TKt-8wk-37">
          <mxGeometry y="60" width="140" height="30" as="geometry" />
        </mxCell>
        <mxCell id="U930AkhM4AC63TKt-8wk-40" value="Количество" style="text;strokeColor=#d79b00;fillColor=#ffe6cc;align=left;verticalAlign=middle;spacingLeft=4;spacingRight=4;overflow=hidden;points=[[0,0.5],[1,0.5]];portConstraint=eastwest;rotatable=0;whiteSpace=wrap;html=1;" vertex="1" parent="U930AkhM4AC63TKt-8wk-37">
          <mxGeometry y="90" width="140" height="30" as="geometry" />
        </mxCell>
        <mxCell id="U930AkhM4AC63TKt-8wk-41" style="edgeStyle=orthogonalEdgeStyle;rounded=0;orthogonalLoop=1;jettySize=auto;html=1;entryX=0.01;entryY=0.156;entryDx=0;entryDy=0;entryPerimeter=0;endArrow=none;endFill=0;" edge="1" parent="1" source="U930AkhM4AC63TKt-8wk-4" target="U930AkhM4AC63TKt-8wk-37">
          <mxGeometry relative="1" as="geometry" />
        </mxCell>
        <mxCell id="U930AkhM4AC63TKt-8wk-42" value="&lt;font style=&quot;font-size: 18px;&quot;&gt;Постачальники&lt;/font&gt;" style="swimlane;fontStyle=0;childLayout=stackLayout;horizontal=1;startSize=30;horizontalStack=0;resizeParent=1;resizeParentMax=0;resizeLast=0;collapsible=1;marginBottom=0;whiteSpace=wrap;html=1;fillColor=#d5e8d4;strokeColor=#82b366;" vertex="1" parent="1">
          <mxGeometry x="310" y="540" width="140" height="120" as="geometry" />
        </mxCell>
        <mxCell id="U930AkhM4AC63TKt-8wk-43" value="Страна" style="text;strokeColor=#d79b00;fillColor=#ffe6cc;align=left;verticalAlign=middle;spacingLeft=4;spacingRight=4;overflow=hidden;points=[[0,0.5],[1,0.5]];portConstraint=eastwest;rotatable=0;whiteSpace=wrap;html=1;" vertex="1" parent="U930AkhM4AC63TKt-8wk-42">
          <mxGeometry y="30" width="140" height="30" as="geometry" />
        </mxCell>
        <mxCell id="U930AkhM4AC63TKt-8wk-44" value="Имя постачальника" style="text;strokeColor=#d79b00;fillColor=#ffe6cc;align=left;verticalAlign=middle;spacingLeft=4;spacingRight=4;overflow=hidden;points=[[0,0.5],[1,0.5]];portConstraint=eastwest;rotatable=0;whiteSpace=wrap;html=1;" vertex="1" parent="U930AkhM4AC63TKt-8wk-42">
          <mxGeometry y="60" width="140" height="30" as="geometry" />
        </mxCell>
        <mxCell id="U930AkhM4AC63TKt-8wk-45" value="Количество" style="text;strokeColor=#d79b00;fillColor=#ffe6cc;align=left;verticalAlign=middle;spacingLeft=4;spacingRight=4;overflow=hidden;points=[[0,0.5],[1,0.5]];portConstraint=eastwest;rotatable=0;whiteSpace=wrap;html=1;" vertex="1" parent="U930AkhM4AC63TKt-8wk-42">
          <mxGeometry y="90" width="140" height="30" as="geometry" />
        </mxCell>
        <mxCell id="U930AkhM4AC63TKt-8wk-47" value="Код кави" style="text;strokeColor=#d6b656;fillColor=#fff2cc;align=left;verticalAlign=middle;spacingLeft=4;spacingRight=4;overflow=hidden;points=[[0,0.5],[1,0.5]];portConstraint=eastwest;rotatable=0;whiteSpace=wrap;html=1;" vertex="1" parent="1">
          <mxGeometry x="650" y="410" width="140" height="30" as="geometry" />
        </mxCell>
        <mxCell id="U930AkhM4AC63TKt-8wk-48" value="&lt;font style=&quot;font-size: 18px;&quot;&gt;Кави&lt;/font&gt;" style="swimlane;fontStyle=0;childLayout=stackLayout;horizontal=1;startSize=30;horizontalStack=0;resizeParent=1;resizeParentMax=0;resizeLast=0;collapsible=1;marginBottom=0;whiteSpace=wrap;html=1;fillColor=#d5e8d4;strokeColor=#82b366;" vertex="1" parent="1">
          <mxGeometry x="230" y="300" width="140" height="120" as="geometry" />
        </mxCell>
        <mxCell id="U930AkhM4AC63TKt-8wk-49" value="Код кави" style="text;strokeColor=#d6b656;fillColor=#fff2cc;align=left;verticalAlign=middle;spacingLeft=4;spacingRight=4;overflow=hidden;points=[[0,0.5],[1,0.5]];portConstraint=eastwest;rotatable=0;whiteSpace=wrap;html=1;" vertex="1" parent="U930AkhM4AC63TKt-8wk-48">
          <mxGeometry y="30" width="140" height="30" as="geometry" />
        </mxCell>
        <mxCell id="U930AkhM4AC63TKt-8wk-50" value="Опис" style="text;strokeColor=#d79b00;fillColor=#ffe6cc;align=left;verticalAlign=middle;spacingLeft=4;spacingRight=4;overflow=hidden;points=[[0,0.5],[1,0.5]];portConstraint=eastwest;rotatable=0;whiteSpace=wrap;html=1;" vertex="1" parent="U930AkhM4AC63TKt-8wk-48">
          <mxGeometry y="60" width="140" height="30" as="geometry" />
        </mxCell>
        <mxCell id="U930AkhM4AC63TKt-8wk-51" value="Назва" style="text;strokeColor=#d79b00;fillColor=#ffe6cc;align=left;verticalAlign=middle;spacingLeft=4;spacingRight=4;overflow=hidden;points=[[0,0.5],[1,0.5]];portConstraint=eastwest;rotatable=0;whiteSpace=wrap;html=1;" vertex="1" parent="U930AkhM4AC63TKt-8wk-48">
          <mxGeometry y="90" width="140" height="30" as="geometry" />
        </mxCell>
        <mxCell id="U930AkhM4AC63TKt-8wk-53" value="" style="endArrow=classic;html=1;rounded=0;exitX=1.022;exitY=0.168;exitDx=0;exitDy=0;exitPerimeter=0;" edge="1" parent="1" source="U930AkhM4AC63TKt-8wk-54">
          <mxGeometry width="50" height="50" relative="1" as="geometry">
            <mxPoint x="-80" y="370" as="sourcePoint" />
            <mxPoint x="10" y="390" as="targetPoint" />
          </mxGeometry>
        </mxCell>
        <mxCell id="U930AkhM4AC63TKt-8wk-54" value="&lt;font style=&quot;font-size: 18px;&quot;&gt;Сорт кави постачальника&lt;/font&gt;" style="swimlane;fontStyle=0;childLayout=stackLayout;horizontal=1;startSize=40;horizontalStack=0;resizeParent=1;resizeParentMax=0;resizeLast=0;collapsible=1;marginBottom=0;whiteSpace=wrap;html=1;fillColor=#d5e8d4;strokeColor=#82b366;" vertex="1" parent="1">
          <mxGeometry x="-220" y="310" width="140" height="100" as="geometry" />
        </mxCell>
        <mxCell id="U930AkhM4AC63TKt-8wk-55" value="Код кави" style="text;strokeColor=#d6b656;fillColor=#fff2cc;align=left;verticalAlign=middle;spacingLeft=4;spacingRight=4;overflow=hidden;points=[[0,0.5],[1,0.5]];portConstraint=eastwest;rotatable=0;whiteSpace=wrap;html=1;" vertex="1" parent="U930AkhM4AC63TKt-8wk-54">
          <mxGeometry y="40" width="140" height="30" as="geometry" />
        </mxCell>
        <mxCell id="U930AkhM4AC63TKt-8wk-56" value="код постачальника" style="text;strokeColor=#d6b656;fillColor=#fff2cc;align=left;verticalAlign=middle;spacingLeft=4;spacingRight=4;overflow=hidden;points=[[0,0.5],[1,0.5]];portConstraint=eastwest;rotatable=0;whiteSpace=wrap;html=1;" vertex="1" parent="U930AkhM4AC63TKt-8wk-54">
          <mxGeometry y="70" width="140" height="30" as="geometry" />
        </mxCell>
        <mxCell id="U930AkhM4AC63TKt-8wk-59" value="код постачальника" style="text;strokeColor=#d6b656;fillColor=#fff2cc;align=left;verticalAlign=middle;spacingLeft=4;spacingRight=4;overflow=hidden;points=[[0,0.5],[1,0.5]];portConstraint=eastwest;rotatable=0;whiteSpace=wrap;html=1;" vertex="1" parent="1">
          <mxGeometry x="310" y="660" width="140" height="30" as="geometry" />
        </mxCell>
        <mxCell id="U930AkhM4AC63TKt-8wk-60" value="&lt;h1 style=&quot;margin-top: 0px;&quot;&gt;Жёлтый&lt;/h1&gt;&lt;p&gt;Жёлтый цвет отображает ключи. Которые можно использовать между собой в разных классах.&lt;span style=&quot;color: rgba(0, 0, 0, 0); font-family: monospace; font-size: 0px; text-wrap: nowrap; background-color: initial;&quot;&gt;%3CmxGraphModel%3E%3Croot%3E%3CmxCell%20id%3D%220%22%2F%3E%3CmxCell%20id%3D%221%22%20parent%3D%220%22%2F%3E%3CmxCell%20id%3D%222%22%20value%3D%22%D0%BA%D0%BE%D0%B4%20%D0%BF%D0%BE%D1%81%D1%82%D0%B0%D1%87%D0%B0%D0%BB%D1%8C%D0%BD%D0%B8%D0%BA%D0%B0%22%20style%3D%22text%3BstrokeColor%3D%23d79b00%3BfillColor%3D%23ffe6cc%3Balign%3Dleft%3BverticalAlign%3Dmiddle%3BspacingLeft%3D4%3BspacingRight%3D4%3Boverflow%3Dhidden%3Bpoints%3D%5B%5B0%2C0.5%5D%2C%5B1%2C0.5%5D%5D%3BportConstraint%3Deastwest%3Brotatable%3D0%3BwhiteSpace%3Dwrap%3Bhtml%3D1%3B%22%20vertex%3D%221%22%20parent%3D%221%22%3E%3CmxGeometry%20x%3D%22-220%22%20y%3D%22380%22%20width%3D%22140%22%20height%3D%2230%22%20as%3D%22geometry%22%2F%3E%3C%2FmxCell%3E%3C%2Froot%3E%3C%2FmxGraphModel%3E&lt;/span&gt;&lt;/p&gt;" style="text;html=1;whiteSpace=wrap;overflow=hidden;rounded=0;" vertex="1" parent="1">
          <mxGeometry x="-330" y="15" width="180" height="120" as="geometry" />
        </mxCell>
      </root>
    </mxGraphModel>
  </diagram>
</mxfile>
